<?xml version="1.0" encoding="utf-8"?>
<svg viewBox="296.1397 16.7749 64.88 81.04" width="64.88" height="81.04" xmlns="http://www.w3.org/2000/svg">
  <defs>
    <style type="text/css">
		.st0{fill:#4aaa9f;}
		.st1{fill:#282829;}
	</style>
  </defs>
  <g transform="matrix(1, 0, 0, 1, 26.789663314819336, -18.475065231323242)">
    <path class="st0" d="M301.79,35.25c-17.89,0-32.44,14.55-32.44,32.44c0,8.58,3.32,16.68,9.31,22.73l22.18,25.44 c0.24,0.27,0.59,0.43,0.95,0.43s0.71-0.16,0.95-0.43l22.13-25.38c6.04-6.11,9.36-14.21,9.36-22.79 C334.23,49.8,319.68,35.25,301.79,35.25z M323.03,88.77l-21.24,24.35L280.5,88.71c-5.57-5.64-8.63-13.1-8.63-21.02 c0-16.5,13.42-29.92,29.92-29.92c16.5,0,29.92,13.42,29.92,29.92C331.71,75.6,328.64,83.07,323.03,88.77z" style="fill: rgb(27, 27, 27);"/>
    <path class="st0" d="M301.79,46.68c-10.86,0-19.69,8.83-19.69,19.69c0,10.86,8.83,19.69,19.69,19.69 c10.86,0,19.69-8.83,19.69-19.69C321.48,55.51,312.65,46.68,301.79,46.68z M301.79,83.55c-9.47,0-17.17-7.71-17.17-17.18 c0-9.47,7.7-17.17,17.17-17.17c9.47,0,17.18,7.71,17.18,17.17C318.97,75.84,311.26,83.55,301.79,83.55z" style="fill: rgb(27, 27, 27);"/>
  </g>
</svg>