<?xml version="1.0" encoding="utf-8"?>
<!-- Generator: Adobe Illustrator 28.0.0, SVG Export Plug-In . SVG Version: 6.00 Build 0)  -->
<svg version="1.1" id="Laag_1" xmlns="http://www.w3.org/2000/svg" xmlns:xlink="http://www.w3.org/1999/xlink" x="0px" y="0px"
	 viewBox="0 0 841.89 595.28" style="enable-background:new 0 0 841.89 595.28;" xml:space="preserve">
<style type="text/css">
	.st0{fill:#282829;}
</style>
<path class="st0" d="M400.73,372.11v24.39c0,4.14,2.4,6.53,6.53,6.53h24.39c4.36,0,6.53-2.4,6.53-6.53v-24.39
	c0-4.36-2.18-6.53-6.53-6.53h-24.39C403.13,365.58,400.73,367.75,400.73,372.11 M481.82,281.37V267.7v-10.75v-1.55h-0.04
	c0.09-2.1-0.91-4.12-2.92-6.13l-53.63-53.63c-3.81-3.81-7.08-3.81-11.43,0l-53.63,53.63c-1.95,1.82-2.94,3.64-3.03,5.52h-0.03v2.17
	v10.75v13.67c0,4.14,2.4,6.54,6.54,6.54h30.53c4.36,0,6.54,2.18,6.54,6.54v25.21h0.02v18.47c0,4.14,2.4,6.53,6.53,6.53h24.39
	c4.36,0,6.53-2.4,6.53-6.53v-18.47h0.02v-25.21c0-4.36,2.4-6.54,6.54-6.54h30.53C479.64,287.91,481.82,285.51,481.82,281.37"/>
</svg>
