<?xml version="1.0" encoding="utf-8"?>
<!-- Generator: Adobe Illustrator 28.0.0, SVG Export Plug-In . SVG Version: 6.00 Build 0)  -->
<svg version="1.1" id="Laag_1" xmlns="http://www.w3.org/2000/svg" xmlns:xlink="http://www.w3.org/1999/xlink" x="0px" y="0px"
	 viewBox="0 0 841.89 595.28" style="enable-background:new 0 0 841.89 595.28;" xml:space="preserve">
<style type="text/css">
	.st0{fill:#282829;}
</style>
<path class="st0" d="M400.73,265.16c0-4.36-2.18-6.54-6.54-6.54h-30.53c-4.14,0-6.54-2.4-6.54-6.54v-24.42
	c0-4.36,2.4-6.54,6.54-6.54h111.64c4.36,0,6.54,2.18,6.54,6.54v24.42c0,4.14-2.18,6.54-6.54,6.54h-30.53
	c-4.14,0-6.54,2.18-6.54,6.54V367.2c0,4.14-2.18,6.54-6.54,6.54h-24.42c-4.14,0-6.54-2.4-6.54-6.54V265.16z"/>
</svg>
