<?xml version="1.0" encoding="utf-8"?>
<!-- Generator: Adobe Illustrator 28.0.0, SVG Export Plug-In . SVG Version: 6.00 Build 0)  -->
<svg version="1.1" id="Laag_1" xmlns="http://www.w3.org/2000/svg" xmlns:xlink="http://www.w3.org/1999/xlink" x="0px" y="0px"
	 viewBox="0 0 841.89 595.28" style="enable-background:new 0 0 841.89 595.28;" xml:space="preserve">
<style type="text/css">
	.st0{fill:#282829;}
</style>
<path class="st0" d="M410.55,380.19h0.04V227.7h-0.01c0.04-0.87-0.36-1.77-1.26-2.73l-3.28-3.16c-1.52-1.52-3.39-1.52-4.8,0
	l-16.62,16.5c-0.58,0.58-1.05,0.58-1.4,0l-16.74-16.5c-1.64-1.64-3.39-1.52-4.92,0l-3.28,3.16c-0.9,0.96-1.33,1.86-1.31,2.73h-0.01
	v152.48h0.05c-0.16,0.99,0.25,1.95,1.26,2.9l23.06,23.06c1.87,1.64,3.28,1.64,4.92,0l23.06-23.06
	C410.28,382.13,410.7,381.18,410.55,380.19 M481.99,214.67h-0.05c0.16-1-0.25-1.95-1.26-2.9l-23.06-23.06
	c-1.87-1.64-3.28-1.64-4.92,0l-23.06,23.06c-0.95,0.95-1.37,1.9-1.23,2.9h-0.04v152.48h0.01c-0.04,0.87,0.36,1.77,1.26,2.73
	l3.28,3.16c1.52,1.52,3.39,1.52,4.8,0l16.62-16.5c0.59-0.58,1.05-0.58,1.4,0l16.74,16.5c1.64,1.64,3.39,1.52,4.92,0l3.28-3.16
	c0.9-0.96,1.33-1.86,1.31-2.73h0.01V214.67z"/>
</svg>
