<?xml version="1.0" encoding="utf-8"?>
<!-- Generator: Adobe Illustrator 28.0.0, SVG Export Plug-In . SVG Version: 6.00 Build 0)  -->
<svg version="1.1" id="Laag_1" xmlns="http://www.w3.org/2000/svg" xmlns:xlink="http://www.w3.org/1999/xlink" x="0px" y="0px"
	 viewBox="0 0 841.89 595.28" style="enable-background:new 0 0 841.89 595.28;" xml:space="preserve">
<style type="text/css">
	.st0{fill:#282829;}
</style>
<g>
	<path class="st0" d="M431.68,336.28h-24.39c-4.14,0-6.53,2.18-6.53,6.53v24.4c0,4.14,2.39,6.53,6.53,6.53h24.39
		c4.36,0,6.53-2.4,6.53-6.53v-24.4C438.22,338.46,436.04,336.28,431.68,336.28z"/>
	<path class="st0" d="M475.31,221.11H363.66c-4.14,0-6.54,2.18-6.54,6.54v24.42c0,4.14,2.4,6.54,6.54,6.54h30.53
		c4.36,0,6.54,2.18,6.54,6.54v25.21h0.02v18.47c0,4.14,2.39,6.53,6.53,6.53h24.39c4.36,0,6.53-2.4,6.53-6.53v-18.47h0.02v-25.21
		c0-4.36,2.4-6.54,6.54-6.54h30.53c4.36,0,6.54-2.4,6.54-6.54v-24.42C481.85,223.29,479.67,221.11,475.31,221.11z"/>
</g>
</svg>
