<?xml version="1.0" encoding="utf-8"?>
<!-- Generator: Adobe Illustrator 28.0.0, SVG Export Plug-In . SVG Version: 6.00 Build 0)  -->
<svg version="1.1" id="Laag_1" xmlns="http://www.w3.org/2000/svg" xmlns:xlink="http://www.w3.org/1999/xlink" x="0px" y="0px"
	 viewBox="0 0 841.89 595.28" style="enable-background:new 0 0 841.89 595.28;" xml:space="preserve">
<style type="text/css">
	.st0{fill:#282829;}
</style>
<path class="st0" d="M481.82,210.07v-19.6c0-3.38-1.78-5.35-5.35-5.35H362.45c-3.39,0-5.35,1.96-5.35,5.35v19.6
	c0,3.56,1.96,5.35,5.35,5.35h114.03C480.04,215.41,481.82,213.63,481.82,210.07 M481.82,252.56v-19.6c0-3.39-1.78-5.35-5.35-5.35
	H362.45c-3.39,0-5.35,1.96-5.35,5.35v19.6c0,3.56,1.96,5.35,5.35,5.35h114.03C480.04,257.91,481.82,256.13,481.82,252.56
	 M481.82,346.15v-28.39v-5.36v-14.24c0-0.55-0.07-1.05-0.16-1.52c0.09-0.49,0.16-1,0.16-1.58v-19.6c0-3.39-1.78-5.35-5.35-5.35
	H362.45c-3.39,0-5.35,1.96-5.35,5.35v19.6c0,0.58,0.07,1.1,0.17,1.58c-0.1,0.47-0.17,0.97-0.17,1.52v14.24v5.36v9.33v5.78v13.9h0.03
	c0.09,1.88,1.08,3.7,3.03,5.52l53.63,53.63c4.36,3.81,7.62,3.81,11.43,0l53.63-53.63c2.02-2.02,3.01-4.04,2.92-6.13H481.82z"/>
</svg>
