<?xml version="1.0" encoding="utf-8"?>
<!-- Generator: Adobe Illustrator 28.0.0, SVG Export Plug-In . SVG Version: 6.00 Build 0)  -->
<svg version="1.1" id="Laag_1" xmlns="http://www.w3.org/2000/svg" xmlns:xlink="http://www.w3.org/1999/xlink" x="0px" y="0px"
	 viewBox="0 0 841.89 595.28" style="enable-background:new 0 0 841.89 595.28;" xml:space="preserve">
<style type="text/css">
	.st0{fill:#282829;}
</style>
<path class="st0" d="M481.82,346.15V323.1v-3.34v-7.36V192.61c0-4.99-2.5-7.48-7.48-7.48H446.4c-4.74,0-7.48,2.74-7.48,7.48v62.36
	c0,4.74-2.5,7.49-7.48,7.49h-23.95c-4.74,0-7.48-2.74-7.48-7.49v-62.36c0-4.74-2.74-7.48-7.48-7.48h-27.94
	c-4.99,0-7.48,2.5-7.48,7.48V312.4v7.36v3.34v3.98v5.78v13.9h0.03c0.09,1.88,1.08,3.7,3.03,5.52l53.63,53.63
	c4.36,3.81,7.62,3.81,11.43,0l53.63-53.63c2.02-2.02,3.01-4.04,2.92-6.13H481.82z"/>
</svg>
