<?xml version="1.0" encoding="utf-8"?>
<!-- Generator: Adobe Illustrator 28.0.0, SVG Export Plug-In . SVG Version: 6.00 Build 0)  -->
<svg version="1.1" id="Laag_1" xmlns="http://www.w3.org/2000/svg" xmlns:xlink="http://www.w3.org/1999/xlink" x="0px" y="0px"
	 viewBox="0 0 841.89 595.28" style="enable-background:new 0 0 841.89 595.28;" xml:space="preserve">
<style type="text/css">
	.st0{fill:#282829;}
</style>
<path class="st0" d="M437.69,306.49c0,11.27-5.76,12.47-17.27,12.47h-15.11c-4.56,0-7.2-2.4-7.2-7.2v-11.03
	c0-4.8,2.64-7.19,7.2-7.19h15.59C432.41,293.54,437.69,295.22,437.69,306.49 M435.77,242.69c0,14.87-5.76,16.31-17.27,16.31h-12.95
	c-4.56,0-7.2-2.4-7.2-7.2v-18.23c0-4.8,2.64-7.2,7.2-7.2h12.95C430.02,226.38,435.77,227.82,435.77,242.69 M481.82,346.15v-3.23
	v-8.79V308.9c0-0.01,0-0.01,0-0.02c0-14.87-7.2-26.86-17.03-31.42c9.83-10.79,12.23-26.62,12.23-34.78
	c0-39.34-17.27-57.56-62.36-57.56H364.3c-4.8,0.24-7.19,2.64-7.19,7.43v141.57v11.7v0.94h0.03c0.01,0.13,0.05,0.26,0.07,0.39
	c0.03,0.21,0.06,0.41,0.1,0.6c0.04,0.2,0.09,0.41,0.15,0.61c0.36,1.26,0.99,2.28,1.89,3.05c0.26,0.29,0.51,0.58,0.82,0.87
	l53.63,53.63c4.36,3.81,7.62,3.81,11.43,0l53.63-53.63c2.02-2.02,3.01-4.04,2.92-6.13H481.82z"/>
</svg>
