<?xml version="1.0" encoding="utf-8"?>
<!-- Generator: Adobe Illustrator 28.0.0, SVG Export Plug-In . SVG Version: 6.00 Build 0)  -->
<svg version="1.1" id="Laag_1" xmlns="http://www.w3.org/2000/svg" xmlns:xlink="http://www.w3.org/1999/xlink" x="0px" y="0px"
	 viewBox="0 0 841.89 595.28" style="enable-background:new 0 0 841.89 595.28;" xml:space="preserve">
<style type="text/css">
	.st0{fill:#282829;}
</style>
<path class="st0" d="M392.55,210.12c4.74,0,7.48,2.74,7.48,7.48v62.36c0,4.74,2.74,7.48,7.48,7.48h23.95c4.99,0,7.48-2.74,7.48-7.48
	V217.6c0-4.74,2.74-7.48,7.48-7.48h27.94c4.99,0,7.48,2.49,7.48,7.48v159.65c0,4.74-2.49,7.48-7.48,7.48h-27.94
	c-4.74,0-7.48-2.74-7.48-7.48v-39.41c0-4.99-2.49-7.48-7.48-7.48h-23.95c-4.74,0-7.48,2.49-7.48,7.48v39.41
	c0,4.74-2.49,7.48-7.48,7.48h-27.94c-4.74,0-7.48-2.74-7.48-7.48V217.6c0-4.99,2.5-7.48,7.48-7.48H392.55z"/>
</svg>
