<?xml version="1.0" encoding="utf-8"?>
<svg viewBox="0.138 0.169 257.95 257.95" width="257.95" height="257.95" xmlns="http://www.w3.org/2000/svg">
  <defs>
    <style type="text/css">
		.st0{fill:#4aaa9f;}
		.st1{fill:#282829;}
	</style>
  </defs>
  <path class="st0" d="M 0.138 211.779 C 0.138 237.369 20.888 258.119 46.478 258.119 L 211.748 258.119 C 237.338 258.119 258.088 237.369 258.088 211.779 L 258.088 46.509 C 258.088 20.919 237.338 0.169 211.748 0.169 L 46.478 0.169 C 20.888 0.169 0.138 20.919 0.138 46.509 L 0.138 211.779 Z"/>
  <path class="st1" d="M 66.782 163.783 C 63.562 163.783 61.692 162.083 61.692 158.693 L 61.692 150.893 C 61.692 147.503 63.552 145.803 66.782 145.803 L 77.802 145.803 C 85.942 145.803 89.672 146.993 89.672 154.963 C 89.672 162.933 85.602 163.783 77.462 163.783 L 66.782 163.783 Z M 66.952 121.383 C 63.732 121.383 61.862 119.683 61.862 116.293 L 61.862 103.403 C 61.862 100.013 63.732 98.313 66.952 98.313 L 76.112 98.313 C 84.252 98.313 88.322 99.333 88.322 109.843 C 88.322 120.363 84.252 121.373 76.112 121.373 L 66.952 121.373 L 66.952 121.383 Z M 37.782 69.143 C 34.392 69.313 32.692 71.013 32.692 74.403 L 32.692 182.773 C 32.692 185.993 34.562 187.863 37.782 187.863 L 79.672 187.863 C 111.562 187.863 120.882 177.683 120.882 156.653 C 120.882 146.133 115.792 137.663 108.842 134.433 C 115.792 126.803 117.492 115.613 117.492 109.843 C 117.492 82.033 105.282 69.143 73.392 69.143 L 37.782 69.143 Z"/>
  <path class="st1" d="M 218.538 107.689 C 221.588 107.009 223.118 105.149 222.948 102.089 C 221.928 89.879 213.788 67.149 178.848 67.149 C 140.858 67.149 137.808 97.169 137.978 102.259 C 137.978 141.269 189.028 138.049 192.248 152.459 C 193.268 157.039 187.158 161.959 178.848 161.959 C 170.878 161.959 164.598 157.209 163.928 149.069 C 163.588 145.509 161.718 143.979 158.328 144.659 L 139.168 148.899 C 136.118 149.579 134.588 151.439 134.758 154.499 C 135.608 167.729 143.238 191.129 178.858 191.129 C 219.058 191.129 224.818 161.109 224.818 156.019 C 224.818 117.009 171.228 117.349 168.848 104.119 C 168.168 100.219 172.238 96.319 178.858 96.319 C 186.828 96.319 192.428 100.729 193.618 107.679 C 194.128 111.069 195.818 112.599 199.218 111.919 L 218.538 107.689 Z"/>
</svg>