<?xml version="1.0" encoding="utf-8"?>
<svg viewBox="0.4255 -38.1064 524.2701 317.93" width="524.2701" height="317.93" xmlns="http://www.w3.org/2000/svg">
  <defs>
    <style type="text/css">
		.st0{fill:#4aaa9f;}
		.st1{fill:#282829;}
	</style>
  </defs>
  <g transform="matrix(1, 0, 0, 1, -157.57437133789062, -179.95635986328125)">
    <g>
      <defs>
        <path id="SVGID_1_" d="M255.71,185.28c-2.78,0-4.39,1.47-4.39,4.39v65.19c0,9.67,2.05,35.6,36.77,35.6 c34.72,0,36.77-25.93,36.77-35.6v-65.19c0-2.93-1.46-4.39-4.39-4.39h-16.41c-2.78,0-4.39,1.47-4.39,4.39v57.42 c0,11.28-0.73,18.16-11.57,18.16c-10.84,0-11.57-6.88-11.57-18.16v-57.42c0-2.93-1.47-4.39-4.4-4.39H255.71L255.71,185.28z"/>
      </defs>
      <clipPath id="SVGID_00000097475006277410624030000005309444217776688267_">
        <path d="M255.71,185.28c-2.78,0-4.39,1.47-4.39,4.39v65.19c0,9.67,2.05,35.6,36.77,35.6 c34.72,0,36.77-25.93,36.77-35.6v-65.19c0-2.93-1.46-4.39-4.39-4.39h-16.41c-2.78,0-4.39,1.47-4.39,4.39v57.42 c0,11.28-0.73,18.16-11.57,18.16c-10.84,0-11.57-6.88-11.57-18.16v-57.42c0-2.93-1.47-4.39-4.4-4.39H255.71L255.71,185.28z" style="overflow: visible;"/>
      </clipPath>
      <polygon style="clip-path:url(#SVGID_00000097475006277410624030000005309444217776688267_);fill:#302D2B;" points="&#10;&#9;&#9;&#9;252.53,142.85 179.02,270.18 177.28,269.18 250.79,141.85 252.53,142.85 &#9;&#9;"/>
      <polygon style="clip-path:url(#SVGID_00000097475006277410624030000005309444217776688267_);fill:#302D2B;" points="&#10;&#9;&#9;&#9;260.89,147.68 187.38,275 185.65,274 259.16,146.68 260.89,147.68 &#9;&#9;"/>
      <polygon style="clip-path:url(#SVGID_00000097475006277410624030000005309444217776688267_);fill:#302D2B;" points="&#10;&#9;&#9;&#9;290.17,164.58 216.65,291.91 214.92,290.91 288.43,163.58 290.17,164.58 &#9;&#9;"/>
      <polygon style="clip-path:url(#SVGID_00000097475006277410624030000005309444217776688267_);fill:#302D2B;" points="&#10;&#9;&#9;&#9;319.44,181.48 245.93,308.81 244.2,307.81 317.71,180.48 319.44,181.48 &#9;&#9;"/>
      <polygon style="clip-path:url(#SVGID_00000097475006277410624030000005309444217776688267_);fill:#302D2B;" points="&#10;&#9;&#9;&#9;348.72,198.38 275.2,325.71 273.47,324.71 346.98,197.38 348.72,198.38 &#9;&#9;"/>
      <polygon style="clip-path:url(#SVGID_00000097475006277410624030000005309444217776688267_);fill:#302D2B;" points="&#10;&#9;&#9;&#9;269.26,152.51 195.74,279.83 194.01,278.83 267.52,151.51 269.26,152.51 &#9;&#9;"/>
      <polygon style="clip-path:url(#SVGID_00000097475006277410624030000005309444217776688267_);fill:#302D2B;" points="&#10;&#9;&#9;&#9;298.53,169.41 225.02,296.74 223.29,295.74 296.8,168.41 298.53,169.41 &#9;&#9;"/>
      <polygon style="clip-path:url(#SVGID_00000097475006277410624030000005309444217776688267_);fill:#302D2B;" points="&#10;&#9;&#9;&#9;327.81,186.31 254.29,313.64 252.56,312.64 326.07,185.31 327.81,186.31 &#9;&#9;"/>
      <polygon style="clip-path:url(#SVGID_00000097475006277410624030000005309444217776688267_);fill:#302D2B;" points="&#10;&#9;&#9;&#9;357.08,203.21 283.57,330.54 281.84,329.54 355.35,202.21 357.08,203.21 &#9;&#9;"/>
      <polygon style="clip-path:url(#SVGID_00000097475006277410624030000005309444217776688267_);fill:#302D2B;" points="&#10;&#9;&#9;&#9;277.62,157.34 204.11,284.66 202.38,283.66 275.89,156.34 277.62,157.34 &#9;&#9;"/>
      <polygon style="clip-path:url(#SVGID_00000097475006277410624030000005309444217776688267_);fill:#302D2B;" points="&#10;&#9;&#9;&#9;306.89,174.24 233.38,301.56 231.65,300.56 305.16,173.24 306.89,174.24 &#9;&#9;"/>
      <polygon style="clip-path:url(#SVGID_00000097475006277410624030000005309444217776688267_);fill:#302D2B;" points="&#10;&#9;&#9;&#9;336.17,191.14 262.66,318.47 260.93,317.47 334.44,190.14 336.17,191.14 &#9;&#9;"/>
      <polygon style="clip-path:url(#SVGID_00000097475006277410624030000005309444217776688267_);fill:#302D2B;" points="&#10;&#9;&#9;&#9;365.44,208.04 291.93,335.37 290.2,334.37 363.71,207.04 365.44,208.04 &#9;&#9;"/>
      <polygon style="clip-path:url(#SVGID_00000097475006277410624030000005309444217776688267_);fill:#302D2B;" points="&#10;&#9;&#9;&#9;256.71,145.26 183.2,272.59 181.47,271.59 254.98,144.26 256.71,145.26 &#9;&#9;"/>
      <polygon style="clip-path:url(#SVGID_00000097475006277410624030000005309444217776688267_);fill:#302D2B;" points="&#10;&#9;&#9;&#9;285.98,162.17 212.47,289.49 210.74,288.49 284.25,161.17 285.98,162.17 &#9;&#9;"/>
      <polygon style="clip-path:url(#SVGID_00000097475006277410624030000005309444217776688267_);fill:#302D2B;" points="&#10;&#9;&#9;&#9;315.26,179.07 241.75,306.39 240.02,305.39 313.53,178.07 315.26,179.07 &#9;&#9;"/>
      <polygon style="clip-path:url(#SVGID_00000097475006277410624030000005309444217776688267_);fill:#302D2B;" points="&#10;&#9;&#9;&#9;344.53,195.97 271.02,323.3 269.29,322.3 342.8,194.97 344.53,195.97 &#9;&#9;"/>
      <polygon style="clip-path:url(#SVGID_00000097475006277410624030000005309444217776688267_);fill:#302D2B;" points="&#10;&#9;&#9;&#9;265.07,150.09 191.56,277.42 189.83,276.42 263.34,149.09 265.07,150.09 &#9;&#9;"/>
      <polygon style="clip-path:url(#SVGID_00000097475006277410624030000005309444217776688267_);fill:#302D2B;" points="294.35,167 &#10;&#9;&#9;&#9;220.84,294.32 219.1,293.32 292.62,166 294.35,167 &#9;&#9;"/>
      <polygon style="clip-path:url(#SVGID_00000097475006277410624030000005309444217776688267_);fill:#302D2B;" points="323.62,183.9 &#10;&#9;&#9;&#9;250.11,311.22 248.38,310.22 321.89,182.9 323.62,183.9 &#9;&#9;"/>
      <polygon style="clip-path:url(#SVGID_00000097475006277410624030000005309444217776688267_);fill:#302D2B;" points="352.9,200.8 &#10;&#9;&#9;&#9;279.39,328.12 277.65,327.12 351.17,199.8 352.9,200.8 &#9;&#9;"/>
      <polygon style="clip-path:url(#SVGID_00000097475006277410624030000005309444217776688267_);fill:#302D2B;" points="&#10;&#9;&#9;&#9;273.44,154.92 199.93,282.25 198.19,281.25 271.71,153.92 273.44,154.92 &#9;&#9;"/>
      <polygon style="clip-path:url(#SVGID_00000097475006277410624030000005309444217776688267_);fill:#302D2B;" points="&#10;&#9;&#9;&#9;302.71,171.82 229.2,299.15 227.47,298.15 300.98,170.82 302.71,171.82 &#9;&#9;"/>
      <polygon style="clip-path:url(#SVGID_00000097475006277410624030000005309444217776688267_);fill:#302D2B;" points="&#10;&#9;&#9;&#9;331.99,188.73 258.48,316.05 256.74,315.05 330.26,187.73 331.99,188.73 &#9;&#9;"/>
      <polygon style="clip-path:url(#SVGID_00000097475006277410624030000005309444217776688267_);fill:#302D2B;" points="&#10;&#9;&#9;&#9;361.26,205.63 287.75,332.95 286.02,331.95 359.53,204.63 361.26,205.63 &#9;&#9;"/>
      <polygon style="clip-path:url(#SVGID_00000097475006277410624030000005309444217776688267_);fill:#302D2B;" points="281.8,159.75 &#10;&#9;&#9;&#9;208.29,287.08 206.56,286.08 280.07,158.75 281.8,159.75 &#9;&#9;"/>
      <polygon style="clip-path:url(#SVGID_00000097475006277410624030000005309444217776688267_);fill:#302D2B;" points="&#10;&#9;&#9;&#9;311.08,176.65 237.57,303.98 235.83,302.98 309.34,175.65 311.08,176.65 &#9;&#9;"/>
      <polygon style="clip-path:url(#SVGID_00000097475006277410624030000005309444217776688267_);fill:#302D2B;" points="&#10;&#9;&#9;&#9;340.35,193.56 266.84,320.88 265.11,319.88 338.62,192.56 340.35,193.56 &#9;&#9;"/>
      <polygon style="clip-path:url(#SVGID_00000097475006277410624030000005309444217776688267_);fill:#302D2B;" points="&#10;&#9;&#9;&#9;369.63,210.46 296.12,337.78 294.38,336.78 367.89,209.46 369.63,210.46 &#9;&#9;"/>
      <polygon style="clip-path:url(#SVGID_00000097475006277410624030000005309444217776688267_);fill:#302D2B;" points="382.17,217.7 &#10;&#9;&#9;&#9;308.66,345.03 306.93,344.03 380.44,216.7 382.17,217.7 &#9;&#9;"/>
      <polygon style="clip-path:url(#SVGID_00000097475006277410624030000005309444217776688267_);fill:#302D2B;" points="&#10;&#9;&#9;&#9;377.99,215.29 304.48,342.61 302.75,341.61 376.26,214.29 377.99,215.29 &#9;&#9;"/>
      <polygon style="clip-path:url(#SVGID_00000097475006277410624030000005309444217776688267_);fill:#302D2B;" points="&#10;&#9;&#9;&#9;373.81,212.87 300.3,340.2 298.57,339.2 372.08,211.87 373.81,212.87 &#9;&#9;"/>
    </g>
    <path class="st1" d="M230.37,339.62c2.64-0.59,3.96-2.2,3.81-4.83c-0.88-10.55-7.91-30.17-38.09-30.17 c-32.81,0-35.45,25.93-35.3,30.32c0,33.69,44.09,30.91,46.87,43.36c0.88,3.95-4.39,8.2-11.57,8.2c-6.89,0-12.31-4.1-12.89-11.13 c-0.29-3.08-1.91-4.39-4.83-3.81l-16.55,3.66c-2.64,0.58-3.95,2.2-3.81,4.83c0.73,11.43,7.33,31.64,38.09,31.64 c34.72,0,39.7-25.93,39.7-30.32c0-33.69-46.29-33.4-48.34-44.82c-0.59-3.37,2.93-6.74,8.64-6.74c6.88,0,11.72,3.81,12.74,9.81 c0.44,2.93,1.9,4.25,4.83,3.66L230.37,339.62L230.37,339.62z" style="fill: rgb(46, 45, 44);"/>
    <path class="st1" d="M324.71,342.11c0-24.02-10.55-35.16-36.62-35.16h-32.23c-2.93,0.15-4.39,1.61-4.39,4.54v93.6 c0,2.78,1.61,4.39,4.39,4.39h16.41c2.93,0,4.39-1.47,4.39-4.39v-23.44c0-2.93,1.61-4.39,4.4-4.39h7.03 C314.16,377.27,324.71,366.13,324.71,342.11L324.71,342.11z M299.51,342.11c0,9.08-3.51,9.96-10.55,9.96h-7.91 c-2.78,0-4.4-1.61-4.4-4.39v-11.13c0-2.93,1.61-4.39,4.4-4.39h7.91C296,332.15,299.51,333.03,299.51,342.11L299.51,342.11z" style="fill: rgb(46, 45, 44);"/>
    <path class="st1" d="M490.6,372.72c-0.29-0.73-0.15-1.46,0.44-1.9c7.76-5.57,11.13-15.09,11.13-28.71 c0-24.02-10.55-35.16-36.62-35.16h-32.08c-2.64,0-4.54,1.9-4.54,4.54v93.46c0,2.64,1.9,4.54,4.54,4.54h16.41 c2.64,0,4.54-1.9,4.54-4.54v-23.15c0-2.64,1.9-4.54,4.54-4.54h5.86c0.44,0,0.88,0.29,1.17,0.73l15.23,29.44 c0.59,1.32,1.9,2.05,3.37,2.05h16.7c4.54,0,6.88-4.1,4.83-7.91L490.6,372.72L490.6,372.72z M476.97,342.11 c0,9.08-3.52,9.96-10.55,9.96h-7.47c-2.64,0-4.54-1.9-4.54-4.54v-10.84c0-2.64,1.9-4.54,4.54-4.54h7.47 C473.46,332.15,476.97,333.03,476.97,342.11L476.97,342.11z" style="fill: rgb(46, 45, 44);"/>
    <path class="st1" d="M630.27,306.95c2.49,0,4.1,1.03,5.13,3.37l19.92,48.78c0.59,1.32,1.76,1.03,1.76-0.44v-47.31 c0-2.93,1.61-4.39,4.39-4.39h16.41c2.93,0,4.39,1.46,4.39,4.39v93.75c0,2.78-1.46,4.39-4.39,4.39h-21.53 c-2.49,0-4.1-1.03-5.13-3.37l-19.92-48.78c-0.59-1.32-1.76-1.03-1.76,0.44v47.31c0,2.78-1.47,4.39-4.39,4.39h-16.41 c-2.78,0-4.39-1.61-4.39-4.39v-93.75c0-2.93,1.61-4.39,4.39-4.39H630.27L630.27,306.95z" style="fill: rgb(46, 45, 44);"/>
    <path class="st1" d="M228.32,241.67c6.01-6.59,7.47-16.26,7.47-21.24c0-24.02-10.55-35.16-38.09-35.16h-30.76 c-2.93,0.15-4.4,1.61-4.4,4.54v93.6c0,2.78,1.61,4.39,4.4,4.39h36.18c27.54,0,35.6-8.79,35.6-26.95 C238.72,251.78,234.33,244.45,228.32,241.67L228.32,241.67z M210.6,220.43c0,9.08-3.52,9.96-10.55,9.96h-7.91 c-2.78,0-4.39-1.46-4.39-4.39v-11.13c0-2.93,1.61-4.39,4.39-4.39h7.91C207.08,210.47,210.6,211.35,210.6,220.43L210.6,220.43z M211.77,259.4c0,6.88-3.52,7.62-10.55,7.62H192c-2.78,0-4.39-1.46-4.39-4.39v-6.74c0-2.93,1.61-4.4,4.39-4.4h9.52 C208.55,251.49,211.77,252.51,211.77,259.4L211.77,259.4z" style="fill: rgb(46, 45, 44);"/>
    <path class="st1" d="M490.6,251.05c-0.29-0.73-0.15-1.47,0.44-1.9c7.76-5.57,11.13-15.09,11.13-28.71 c0-24.02-10.55-35.16-36.62-35.16h-32.08c-2.64,0-4.54,1.9-4.54,4.54v93.46c0,2.64,1.9,4.54,4.54,4.54h16.41 c2.64,0,4.54-1.9,4.54-4.54v-23.14c0-2.64,1.9-4.54,4.54-4.54h5.86c0.44,0,0.88,0.29,1.17,0.73l15.23,29.44 c0.59,1.32,1.9,2.05,3.37,2.05h16.7c4.54,0,6.88-4.1,4.83-7.91L490.6,251.05L490.6,251.05z M476.97,220.43 c0,9.08-3.52,9.96-10.55,9.96h-7.47c-2.64,0-4.54-1.9-4.54-4.54v-10.84c0-2.64,1.9-4.54,4.54-4.54h7.47 C473.46,210.47,476.97,211.35,476.97,220.43L476.97,220.43z" style="fill: rgb(46, 45, 44);"/>
    <path class="st1" d="M542.53,214.86c0-2.93-1.47-4.39-4.4-4.39h-20.51c-2.78,0-4.39-1.61-4.39-4.39v-16.41 c0-2.93,1.61-4.39,4.39-4.39h75c2.93,0,4.39,1.47,4.39,4.39v16.41c0,2.78-1.46,4.39-4.39,4.39h-20.51c-2.78,0-4.39,1.46-4.39,4.39 v68.56c0,2.78-1.47,4.39-4.4,4.39h-16.41c-2.78,0-4.39-1.61-4.39-4.39V214.86L542.53,214.86z" style="fill: rgb(46, 45, 44);"/>
    <g>
      <defs>
        <path id="SVGID_00000142879917610806802850000004757661166559483273_" d="M414.72,376.53v-36.62c0-9.67-2.05-35.6-36.77-35.6 c-34.72,0-36.77,25.93-36.77,35.6v36.62c0,9.67,2.05,35.6,36.77,35.6C412.67,412.13,414.72,386.2,414.72,376.53L414.72,376.53z M389.53,368.77c0,11.28-0.73,18.16-11.57,18.16s-11.57-6.89-11.57-18.16v-21.09c0-11.28,0.73-18.16,11.57-18.16 s11.57,6.89,11.57,18.16V368.77L389.53,368.77z"/>
      </defs>
      <clipPath id="SVGID_00000021106635564821853630000015659874350780779395_">
        <path d="M414.72,376.53v-36.62c0-9.67-2.05-35.6-36.77-35.6 c-34.72,0-36.77,25.93-36.77,35.6v36.62c0,9.67,2.05,35.6,36.77,35.6C412.67,412.13,414.72,386.2,414.72,376.53L414.72,376.53z M389.53,368.77c0,11.28-0.73,18.16-11.57,18.16s-11.57-6.89-11.57-18.16v-21.09c0-11.28,0.73-18.16,11.57-18.16 s11.57,6.89,11.57,18.16V368.77L389.53,368.77z" style="overflow: visible;"/>
      </clipPath>
      <polygon style="clip-path:url(#SVGID_00000021106635564821853630000015659874350780779395_);fill:#302D2B;" points="&#10;&#9;&#9;&#9;341.67,243.91 268.16,371.24 266.43,370.24 339.94,242.91 341.67,243.91 &#9;&#9;"/>
      <polygon style="clip-path:url(#SVGID_00000021106635564821853630000015659874350780779395_);fill:#302D2B;" points="&#10;&#9;&#9;&#9;350.03,248.74 276.52,376.07 274.79,375.07 348.3,247.74 350.03,248.74 &#9;&#9;"/>
      <polygon style="clip-path:url(#SVGID_00000021106635564821853630000015659874350780779395_);fill:#302D2B;" points="&#10;&#9;&#9;&#9;379.31,265.64 305.8,392.97 304.06,391.97 377.58,264.64 379.31,265.64 &#9;&#9;"/>
      <polygon style="clip-path:url(#SVGID_00000021106635564821853630000015659874350780779395_);fill:#302D2B;" points="&#10;&#9;&#9;&#9;408.58,282.55 335.07,409.87 333.34,408.87 406.85,281.55 408.58,282.55 &#9;&#9;"/>
      <polygon style="clip-path:url(#SVGID_00000021106635564821853630000015659874350780779395_);fill:#302D2B;" points="&#10;&#9;&#9;&#9;437.86,299.45 364.35,426.77 362.61,425.77 436.13,298.45 437.86,299.45 &#9;&#9;"/>
      <polygon style="clip-path:url(#SVGID_00000021106635564821853630000015659874350780779395_);fill:#302D2B;" points="358.4,253.57 &#10;&#9;&#9;&#9;284.89,380.9 283.15,379.9 356.66,252.57 358.4,253.57 &#9;&#9;"/>
      <polygon style="clip-path:url(#SVGID_00000021106635564821853630000015659874350780779395_);fill:#302D2B;" points="&#10;&#9;&#9;&#9;387.67,270.47 314.16,397.8 312.43,396.8 385.94,269.47 387.67,270.47 &#9;&#9;"/>
      <polygon style="clip-path:url(#SVGID_00000021106635564821853630000015659874350780779395_);fill:#302D2B;" points="&#10;&#9;&#9;&#9;416.95,287.37 343.44,414.7 341.7,413.7 415.21,286.37 416.95,287.37 &#9;&#9;"/>
      <polygon style="clip-path:url(#SVGID_00000021106635564821853630000015659874350780779395_);fill:#302D2B;" points="&#10;&#9;&#9;&#9;446.22,304.28 372.71,431.6 370.98,430.6 444.49,303.28 446.22,304.28 &#9;&#9;"/>
      <polygon style="clip-path:url(#SVGID_00000021106635564821853630000015659874350780779395_);fill:#302D2B;" points="366.76,258.4 &#10;&#9;&#9;&#9;293.25,385.73 291.52,384.73 365.03,257.4 366.76,258.4 &#9;&#9;"/>
      <polygon style="clip-path:url(#SVGID_00000021106635564821853630000015659874350780779395_);fill:#302D2B;" points="396.04,275.3 &#10;&#9;&#9;&#9;322.52,402.63 320.79,401.63 394.3,274.3 396.04,275.3 &#9;&#9;"/>
      <polygon style="clip-path:url(#SVGID_00000021106635564821853630000015659874350780779395_);fill:#302D2B;" points="425.31,292.2 &#10;&#9;&#9;&#9;351.8,419.53 350.07,418.53 423.58,291.2 425.31,292.2 &#9;&#9;"/>
      <polygon style="clip-path:url(#SVGID_00000021106635564821853630000015659874350780779395_);fill:#302D2B;" points="&#10;&#9;&#9;&#9;454.59,309.11 381.07,436.43 379.34,435.43 452.85,308.11 454.59,309.11 &#9;&#9;"/>
      <polygon style="clip-path:url(#SVGID_00000021106635564821853630000015659874350780779395_);fill:#302D2B;" points="&#10;&#9;&#9;&#9;345.85,246.33 272.34,373.65 270.61,372.65 344.12,245.33 345.85,246.33 &#9;&#9;"/>
      <polygon style="clip-path:url(#SVGID_00000021106635564821853630000015659874350780779395_);fill:#302D2B;" points="&#10;&#9;&#9;&#9;375.13,263.23 301.61,390.55 299.88,389.55 373.39,262.23 375.13,263.23 &#9;&#9;"/>
      <polygon style="clip-path:url(#SVGID_00000021106635564821853630000015659874350780779395_);fill:#302D2B;" points="404.4,280.13 &#10;&#9;&#9;&#9;330.89,407.46 329.16,406.46 402.67,279.13 404.4,280.13 &#9;&#9;"/>
      <polygon style="clip-path:url(#SVGID_00000021106635564821853630000015659874350780779395_);fill:#302D2B;" points="&#10;&#9;&#9;&#9;433.68,297.03 360.16,424.36 358.43,423.36 431.94,296.03 433.68,297.03 &#9;&#9;"/>
      <polygon style="clip-path:url(#SVGID_00000021106635564821853630000015659874350780779395_);fill:#302D2B;" points="&#10;&#9;&#9;&#9;354.21,251.16 280.7,378.48 278.97,377.48 352.48,250.16 354.21,251.16 &#9;&#9;"/>
      <polygon style="clip-path:url(#SVGID_00000021106635564821853630000015659874350780779395_);fill:#302D2B;" points="&#10;&#9;&#9;&#9;383.49,268.06 309.98,395.38 308.25,394.38 381.76,267.06 383.49,268.06 &#9;&#9;"/>
      <polygon style="clip-path:url(#SVGID_00000021106635564821853630000015659874350780779395_);fill:#302D2B;" points="&#10;&#9;&#9;&#9;412.76,284.96 339.25,412.29 337.52,411.29 411.03,283.96 412.76,284.96 &#9;&#9;"/>
      <polygon style="clip-path:url(#SVGID_00000021106635564821853630000015659874350780779395_);fill:#302D2B;" points="&#10;&#9;&#9;&#9;442.04,301.86 368.53,429.19 366.8,428.19 440.31,300.86 442.04,301.86 &#9;&#9;"/>
      <polygon style="clip-path:url(#SVGID_00000021106635564821853630000015659874350780779395_);fill:#302D2B;" points="&#10;&#9;&#9;&#9;362.58,255.99 289.07,383.31 287.34,382.31 360.85,254.99 362.58,255.99 &#9;&#9;"/>
      <polygon style="clip-path:url(#SVGID_00000021106635564821853630000015659874350780779395_);fill:#302D2B;" points="&#10;&#9;&#9;&#9;391.85,272.89 318.34,400.21 316.61,399.21 390.12,271.89 391.85,272.89 &#9;&#9;"/>
      <polygon style="clip-path:url(#SVGID_00000021106635564821853630000015659874350780779395_);fill:#302D2B;" points="&#10;&#9;&#9;&#9;421.13,289.79 347.62,417.11 345.89,416.11 419.4,288.79 421.13,289.79 &#9;&#9;"/>
      <polygon style="clip-path:url(#SVGID_00000021106635564821853630000015659874350780779395_);fill:#302D2B;" points="450.4,306.69 &#10;&#9;&#9;&#9;376.89,434.02 375.16,433.02 448.67,305.69 450.4,306.69 &#9;&#9;"/>
      <polygon style="clip-path:url(#SVGID_00000021106635564821853630000015659874350780779395_);fill:#302D2B;" points="&#10;&#9;&#9;&#9;370.94,260.81 297.43,388.14 295.7,387.14 369.21,259.81 370.94,260.81 &#9;&#9;"/>
      <polygon style="clip-path:url(#SVGID_00000021106635564821853630000015659874350780779395_);fill:#302D2B;" points="&#10;&#9;&#9;&#9;400.22,277.72 326.71,405.04 324.97,404.04 398.49,276.72 400.22,277.72 &#9;&#9;"/>
      <polygon style="clip-path:url(#SVGID_00000021106635564821853630000015659874350780779395_);fill:#302D2B;" points="&#10;&#9;&#9;&#9;429.49,294.62 355.98,421.94 354.25,420.94 427.76,293.62 429.49,294.62 &#9;&#9;"/>
      <polygon style="clip-path:url(#SVGID_00000021106635564821853630000015659874350780779395_);fill:#302D2B;" points="&#10;&#9;&#9;&#9;458.77,311.52 385.26,438.85 383.52,437.85 457.04,310.52 458.77,311.52 &#9;&#9;"/>
      <polygon style="clip-path:url(#SVGID_00000021106635564821853630000015659874350780779395_);fill:#302D2B;" points="&#10;&#9;&#9;&#9;471.31,318.76 397.8,446.09 396.07,445.09 469.58,317.76 471.31,318.76 &#9;&#9;"/>
      <polygon style="clip-path:url(#SVGID_00000021106635564821853630000015659874350780779395_);fill:#302D2B;" points="&#10;&#9;&#9;&#9;467.13,316.35 393.62,443.67 391.89,442.67 465.4,315.35 467.13,316.35 &#9;&#9;"/>
      <polygon style="clip-path:url(#SVGID_00000021106635564821853630000015659874350780779395_);fill:#302D2B;" points="&#10;&#9;&#9;&#9;462.95,313.94 389.44,441.26 387.71,440.26 461.22,312.94 462.95,313.94 &#9;&#9;"/>
    </g>
    <g>
      <defs>
        <path id="SVGID_00000075144255311215267240000004757530024630423464_" d="M585.89,306.95c2.93,0,4.39,1.46,4.39,4.39v16.41 c0,2.78-1.47,4.39-4.39,4.39h-35.45c-2.78,0-4.4,1.47-4.4,4.4v4.69c0,2.78,1.61,4.4,4.4,4.4h22.7c2.93,0,4.39,1.47,4.39,4.39 v16.41c0,2.78-1.46,4.39-4.39,4.39h-22.7c-2.78,0-4.4,1.47-4.4,4.4v4.69c0,2.78,1.61,4.39,4.4,4.39h35.45 c2.93,0,4.39,1.46,4.39,4.39v16.41c0,2.93-1.47,4.39-4.39,4.39h-61.52c-2.78,0-4.39-1.61-4.39-4.39v-93.75 c0-2.93,1.61-4.39,4.39-4.39H585.89L585.89,306.95z"/>
      </defs>
      <clipPath id="SVGID_00000178188614916867631910000009048620379553348994_">
        <path d="M585.89,306.95c2.93,0,4.39,1.46,4.39,4.39v16.41 c0,2.78-1.47,4.39-4.39,4.39h-35.45c-2.78,0-4.4,1.47-4.4,4.4v4.69c0,2.78,1.61,4.4,4.4,4.4h22.7c2.93,0,4.39,1.47,4.39,4.39 v16.41c0,2.78-1.46,4.39-4.39,4.39h-22.7c-2.78,0-4.4,1.47-4.4,4.4v4.69c0,2.78,1.61,4.39,4.4,4.39h35.45 c2.93,0,4.39,1.46,4.39,4.39v16.41c0,2.93-1.47,4.39-4.39,4.39h-61.52c-2.78,0-4.39-1.61-4.39-4.39v-93.75 c0-2.93,1.61-4.39,4.39-4.39H585.89L585.89,306.95z" style="overflow: visible;"/>
      </clipPath>
      <polygon style="clip-path:url(#SVGID_00000178188614916867631910000009048620379553348994_);fill:#302D2B;" points="525.07,257.6 &#10;&#9;&#9;&#9;451.56,384.93 449.83,383.93 523.34,256.6 525.07,257.6 &#9;&#9;"/>
      <polygon style="clip-path:url(#SVGID_00000178188614916867631910000009048620379553348994_);fill:#302D2B;" points="&#10;&#9;&#9;&#9;533.43,262.43 459.92,389.75 458.19,388.75 531.7,261.43 533.43,262.43 &#9;&#9;"/>
      <polygon style="clip-path:url(#SVGID_00000178188614916867631910000009048620379553348994_);fill:#302D2B;" points="&#10;&#9;&#9;&#9;562.71,279.33 489.2,406.66 487.47,405.66 560.98,278.33 562.71,279.33 &#9;&#9;"/>
      <polygon style="clip-path:url(#SVGID_00000178188614916867631910000009048620379553348994_);fill:#302D2B;" points="&#10;&#9;&#9;&#9;591.98,296.23 518.47,423.56 516.74,422.56 590.25,295.23 591.98,296.23 &#9;&#9;"/>
      <polygon style="clip-path:url(#SVGID_00000178188614916867631910000009048620379553348994_);fill:#302D2B;" points="&#10;&#9;&#9;&#9;621.26,313.14 547.75,440.46 546.02,439.46 619.53,312.14 621.26,313.14 &#9;&#9;"/>
      <polygon style="clip-path:url(#SVGID_00000178188614916867631910000009048620379553348994_);fill:#302D2B;" points="541.8,267.26 &#10;&#9;&#9;&#9;468.29,394.58 466.56,393.58 540.07,266.26 541.8,267.26 &#9;&#9;"/>
      <polygon style="clip-path:url(#SVGID_00000178188614916867631910000009048620379553348994_);fill:#302D2B;" points="&#10;&#9;&#9;&#9;571.07,284.16 497.56,411.49 495.83,410.49 569.34,283.16 571.07,284.16 &#9;&#9;"/>
      <polygon style="clip-path:url(#SVGID_00000178188614916867631910000009048620379553348994_);fill:#302D2B;" points="&#10;&#9;&#9;&#9;600.35,301.06 526.84,428.39 525.1,427.39 598.62,300.06 600.35,301.06 &#9;&#9;"/>
      <polygon style="clip-path:url(#SVGID_00000178188614916867631910000009048620379553348994_);fill:#302D2B;" points="&#10;&#9;&#9;&#9;629.62,317.96 556.11,445.29 554.38,444.29 627.89,316.96 629.62,317.96 &#9;&#9;"/>
      <polygon style="clip-path:url(#SVGID_00000178188614916867631910000009048620379553348994_);fill:#302D2B;" points="&#10;&#9;&#9;&#9;550.16,272.09 476.65,399.41 474.92,398.41 548.43,271.09 550.16,272.09 &#9;&#9;"/>
      <polygon style="clip-path:url(#SVGID_00000178188614916867631910000009048620379553348994_);fill:#302D2B;" points="&#10;&#9;&#9;&#9;579.44,288.99 505.93,416.31 504.19,415.31 577.71,287.99 579.44,288.99 &#9;&#9;"/>
      <polygon style="clip-path:url(#SVGID_00000178188614916867631910000009048620379553348994_);fill:#302D2B;" points="&#10;&#9;&#9;&#9;608.71,305.89 535.2,433.22 533.47,432.22 606.98,304.89 608.71,305.89 &#9;&#9;"/>
      <polygon style="clip-path:url(#SVGID_00000178188614916867631910000009048620379553348994_);fill:#302D2B;" points="&#10;&#9;&#9;&#9;637.99,322.79 564.48,450.12 562.75,449.12 636.26,321.79 637.99,322.79 &#9;&#9;"/>
      <polygon style="clip-path:url(#SVGID_00000178188614916867631910000009048620379553348994_);fill:#302D2B;" points="&#10;&#9;&#9;&#9;529.25,260.01 455.74,387.34 454.01,386.34 527.52,259.01 529.25,260.01 &#9;&#9;"/>
      <polygon style="clip-path:url(#SVGID_00000178188614916867631910000009048620379553348994_);fill:#302D2B;" points="&#10;&#9;&#9;&#9;558.53,276.92 485.02,404.24 483.28,403.24 556.79,275.92 558.53,276.92 &#9;&#9;"/>
      <polygon style="clip-path:url(#SVGID_00000178188614916867631910000009048620379553348994_);fill:#302D2B;" points="587.8,293.82 &#10;&#9;&#9;&#9;514.29,421.14 512.56,420.14 586.07,292.82 587.8,293.82 &#9;&#9;"/>
      <polygon style="clip-path:url(#SVGID_00000178188614916867631910000009048620379553348994_);fill:#302D2B;" points="&#10;&#9;&#9;&#9;617.08,310.72 543.57,438.05 541.83,437.05 615.34,309.72 617.08,310.72 &#9;&#9;"/>
      <polygon style="clip-path:url(#SVGID_00000178188614916867631910000009048620379553348994_);fill:#302D2B;" points="&#10;&#9;&#9;&#9;537.62,264.84 464.11,392.17 462.37,391.17 535.88,263.84 537.62,264.84 &#9;&#9;"/>
      <polygon style="clip-path:url(#SVGID_00000178188614916867631910000009048620379553348994_);fill:#302D2B;" points="&#10;&#9;&#9;&#9;566.89,281.75 493.38,409.07 491.65,408.07 565.16,280.75 566.89,281.75 &#9;&#9;"/>
      <polygon style="clip-path:url(#SVGID_00000178188614916867631910000009048620379553348994_);fill:#302D2B;" points="&#10;&#9;&#9;&#9;596.17,298.65 522.65,425.97 520.92,424.97 594.43,297.65 596.17,298.65 &#9;&#9;"/>
      <polygon style="clip-path:url(#SVGID_00000178188614916867631910000009048620379553348994_);fill:#302D2B;" points="&#10;&#9;&#9;&#9;625.44,315.55 551.93,442.87 550.2,441.87 623.71,314.55 625.44,315.55 &#9;&#9;"/>
      <polygon style="clip-path:url(#SVGID_00000178188614916867631910000009048620379553348994_);fill:#302D2B;" points="&#10;&#9;&#9;&#9;545.98,269.67 472.47,397 470.74,396 544.25,268.67 545.98,269.67 &#9;&#9;"/>
      <polygon style="clip-path:url(#SVGID_00000178188614916867631910000009048620379553348994_);fill:#302D2B;" points="&#10;&#9;&#9;&#9;575.26,286.57 501.74,413.9 500.01,412.9 573.52,285.57 575.26,286.57 &#9;&#9;"/>
      <polygon style="clip-path:url(#SVGID_00000178188614916867631910000009048620379553348994_);fill:#302D2B;" points="&#10;&#9;&#9;&#9;604.53,303.48 531.02,430.8 529.29,429.8 602.8,302.48 604.53,303.48 &#9;&#9;"/>
      <polygon style="clip-path:url(#SVGID_00000178188614916867631910000009048620379553348994_);fill:#302D2B;" points="&#10;&#9;&#9;&#9;633.81,320.38 560.29,447.7 558.56,446.7 632.07,319.38 633.81,320.38 &#9;&#9;"/>
      <polygon style="clip-path:url(#SVGID_00000178188614916867631910000009048620379553348994_);fill:#302D2B;" points="554.34,274.5 &#10;&#9;&#9;&#9;480.83,401.83 479.1,400.83 552.61,273.5 554.34,274.5 &#9;&#9;"/>
      <polygon style="clip-path:url(#SVGID_00000178188614916867631910000009048620379553348994_);fill:#302D2B;" points="583.62,291.4 &#10;&#9;&#9;&#9;510.11,418.73 508.38,417.73 581.89,290.4 583.62,291.4 &#9;&#9;"/>
      <polygon style="clip-path:url(#SVGID_00000178188614916867631910000009048620379553348994_);fill:#302D2B;" points="&#10;&#9;&#9;&#9;612.89,308.31 539.38,435.63 537.65,434.63 611.16,307.31 612.89,308.31 &#9;&#9;"/>
      <polygon style="clip-path:url(#SVGID_00000178188614916867631910000009048620379553348994_);fill:#302D2B;" points="&#10;&#9;&#9;&#9;642.17,325.21 568.66,452.53 566.93,451.53 640.44,324.21 642.17,325.21 &#9;&#9;"/>
      <polygon style="clip-path:url(#SVGID_00000178188614916867631910000009048620379553348994_);fill:#302D2B;" points="&#10;&#9;&#9;&#9;654.72,332.45 581.21,459.78 579.47,458.78 652.98,331.45 654.72,332.45 &#9;&#9;"/>
      <polygon style="clip-path:url(#SVGID_00000178188614916867631910000009048620379553348994_);fill:#302D2B;" points="&#10;&#9;&#9;&#9;650.53,330.04 577.02,457.36 575.29,456.36 648.8,329.04 650.53,330.04 &#9;&#9;"/>
      <polygon style="clip-path:url(#SVGID_00000178188614916867631910000009048620379553348994_);fill:#302D2B;" points="&#10;&#9;&#9;&#9;646.35,327.62 572.84,454.95 571.11,453.95 644.62,326.62 646.35,327.62 &#9;&#9;"/>
    </g>
    <g>
      <defs>
        <path id="SVGID_00000113330446738213307740000005914333195300705979_" d="M345.58,185.28c-2.78,0-4.39,1.47-4.39,4.39v65.19 c0,9.67,2.05,35.6,36.77,35.6c34.72,0,36.77-25.93,36.77-35.6v-65.19c0-2.93-1.47-4.39-4.39-4.39h-16.41 c-2.78,0-4.39,1.47-4.39,4.39v57.42c0,11.28-0.73,18.16-11.57,18.16s-11.57-6.88-11.57-18.16v-57.42c0-2.93-1.46-4.39-4.39-4.39 H345.58L345.58,185.28z"/>
      </defs>
      <clipPath id="SVGID_00000055682801623994233090000004175642900117686920_">
        <path d="M345.58,185.28c-2.78,0-4.39,1.47-4.39,4.39v65.19 c0,9.67,2.05,35.6,36.77,35.6c34.72,0,36.77-25.93,36.77-35.6v-65.19c0-2.93-1.47-4.39-4.39-4.39h-16.41 c-2.78,0-4.39,1.47-4.39,4.39v57.42c0,11.28-0.73,18.16-11.57,18.16s-11.57-6.88-11.57-18.16v-57.42c0-2.93-1.46-4.39-4.39-4.39 H345.58L345.58,185.28z" style="overflow: visible;"/>
      </clipPath>
      <polygon style="clip-path:url(#SVGID_00000055682801623994233090000004175642900117686920_);fill:#302D2B;" points="&#10;&#9;&#9;&#9;349.47,148.11 275.95,275.44 274.22,274.44 347.73,147.11 349.47,148.11 &#9;&#9;"/>
      <polygon style="clip-path:url(#SVGID_00000055682801623994233090000004175642900117686920_);fill:#302D2B;" points="&#10;&#9;&#9;&#9;378.74,165.01 305.23,292.34 303.5,291.34 377.01,164.01 378.74,165.01 &#9;&#9;"/>
      <polygon style="clip-path:url(#SVGID_00000055682801623994233090000004175642900117686920_);fill:#302D2B;" points="&#10;&#9;&#9;&#9;408.02,181.92 334.5,309.24 332.77,308.24 406.28,180.92 408.02,181.92 &#9;&#9;"/>
      <polygon style="clip-path:url(#SVGID_00000055682801623994233090000004175642900117686920_);fill:#302D2B;" points="&#10;&#9;&#9;&#9;437.29,198.82 363.78,326.14 362.05,325.14 435.56,197.82 437.29,198.82 &#9;&#9;"/>
      <polygon style="clip-path:url(#SVGID_00000055682801623994233090000004175642900117686920_);fill:#302D2B;" points="&#10;&#9;&#9;&#9;357.83,152.94 284.32,280.27 282.59,279.27 356.1,151.94 357.83,152.94 &#9;&#9;"/>
      <polygon style="clip-path:url(#SVGID_00000055682801623994233090000004175642900117686920_);fill:#302D2B;" points="387.1,169.84 &#10;&#9;&#9;&#9;313.59,297.17 311.86,296.17 385.37,168.84 387.1,169.84 &#9;&#9;"/>
      <polygon style="clip-path:url(#SVGID_00000055682801623994233090000004175642900117686920_);fill:#302D2B;" points="&#10;&#9;&#9;&#9;416.38,186.74 342.87,314.07 341.14,313.07 414.65,185.74 416.38,186.74 &#9;&#9;"/>
      <polygon style="clip-path:url(#SVGID_00000055682801623994233090000004175642900117686920_);fill:#302D2B;" points="&#10;&#9;&#9;&#9;445.65,203.65 372.14,330.97 370.41,329.97 443.92,202.65 445.65,203.65 &#9;&#9;"/>
      <polygon style="clip-path:url(#SVGID_00000055682801623994233090000004175642900117686920_);fill:#302D2B;" points="&#10;&#9;&#9;&#9;366.19,157.77 292.68,285.1 290.95,284.1 364.46,156.77 366.19,157.77 &#9;&#9;"/>
      <polygon style="clip-path:url(#SVGID_00000055682801623994233090000004175642900117686920_);fill:#302D2B;" points="&#10;&#9;&#9;&#9;395.47,174.67 321.96,302 320.23,301 393.74,173.67 395.47,174.67 &#9;&#9;"/>
      <polygon style="clip-path:url(#SVGID_00000055682801623994233090000004175642900117686920_);fill:#302D2B;" points="&#10;&#9;&#9;&#9;424.74,191.57 351.23,318.9 349.5,317.9 423.01,190.57 424.74,191.57 &#9;&#9;"/>
      <polygon style="clip-path:url(#SVGID_00000055682801623994233090000004175642900117686920_);fill:#302D2B;" points="&#10;&#9;&#9;&#9;454.02,208.48 380.51,335.8 378.78,334.8 452.29,207.48 454.02,208.48 &#9;&#9;"/>
      <polygon style="clip-path:url(#SVGID_00000055682801623994233090000004175642900117686920_);fill:#302D2B;" points="345.28,145.7 &#10;&#9;&#9;&#9;271.77,273.02 270.04,272.02 343.55,144.7 345.28,145.7 &#9;&#9;"/>
      <polygon style="clip-path:url(#SVGID_00000055682801623994233090000004175642900117686920_);fill:#302D2B;" points="374.56,162.6 &#10;&#9;&#9;&#9;301.05,289.92 299.32,288.92 372.83,161.6 374.56,162.6 &#9;&#9;"/>
      <polygon style="clip-path:url(#SVGID_00000055682801623994233090000004175642900117686920_);fill:#302D2B;" points="403.83,179.5 &#10;&#9;&#9;&#9;330.32,306.83 328.59,305.83 402.1,178.5 403.83,179.5 &#9;&#9;"/>
      <polygon style="clip-path:url(#SVGID_00000055682801623994233090000004175642900117686920_);fill:#302D2B;" points="433.11,196.4 &#10;&#9;&#9;&#9;359.6,323.73 357.87,322.73 431.38,195.4 433.11,196.4 &#9;&#9;"/>
      <polygon style="clip-path:url(#SVGID_00000055682801623994233090000004175642900117686920_);fill:#302D2B;" points="&#10;&#9;&#9;&#9;353.65,150.53 280.14,277.85 278.4,276.85 351.92,149.53 353.65,150.53 &#9;&#9;"/>
      <polygon style="clip-path:url(#SVGID_00000055682801623994233090000004175642900117686920_);fill:#302D2B;" points="&#10;&#9;&#9;&#9;382.92,167.43 309.41,294.75 307.68,293.75 381.19,166.43 382.92,167.43 &#9;&#9;"/>
      <polygon style="clip-path:url(#SVGID_00000055682801623994233090000004175642900117686920_);fill:#302D2B;" points="412.2,184.33 &#10;&#9;&#9;&#9;338.69,311.66 336.95,310.66 410.47,183.33 412.2,184.33 &#9;&#9;"/>
      <polygon style="clip-path:url(#SVGID_00000055682801623994233090000004175642900117686920_);fill:#302D2B;" points="&#10;&#9;&#9;&#9;441.47,201.23 367.96,328.56 366.23,327.56 439.74,200.23 441.47,201.23 &#9;&#9;"/>
      <polygon style="clip-path:url(#SVGID_00000055682801623994233090000004175642900117686920_);fill:#302D2B;" points="&#10;&#9;&#9;&#9;362.01,155.36 288.5,282.68 286.77,281.68 360.28,154.36 362.01,155.36 &#9;&#9;"/>
      <polygon style="clip-path:url(#SVGID_00000055682801623994233090000004175642900117686920_);fill:#302D2B;" points="&#10;&#9;&#9;&#9;391.29,172.26 317.78,299.58 316.04,298.58 389.56,171.26 391.29,172.26 &#9;&#9;"/>
      <polygon style="clip-path:url(#SVGID_00000055682801623994233090000004175642900117686920_);fill:#302D2B;" points="&#10;&#9;&#9;&#9;420.56,189.16 347.05,316.48 345.32,315.48 418.83,188.16 420.56,189.16 &#9;&#9;"/>
      <polygon style="clip-path:url(#SVGID_00000055682801623994233090000004175642900117686920_);fill:#302D2B;" points="&#10;&#9;&#9;&#9;449.84,206.06 376.33,333.39 374.59,332.39 448.1,205.06 449.84,206.06 &#9;&#9;"/>
      <polygon style="clip-path:url(#SVGID_00000055682801623994233090000004175642900117686920_);fill:#302D2B;" points="&#10;&#9;&#9;&#9;370.38,160.18 296.87,287.51 295.13,286.51 368.64,159.18 370.38,160.18 &#9;&#9;"/>
      <polygon style="clip-path:url(#SVGID_00000055682801623994233090000004175642900117686920_);fill:#302D2B;" points="&#10;&#9;&#9;&#9;399.65,177.09 326.14,304.41 324.41,303.41 397.92,176.09 399.65,177.09 &#9;&#9;"/>
      <polygon style="clip-path:url(#SVGID_00000055682801623994233090000004175642900117686920_);fill:#302D2B;" points="&#10;&#9;&#9;&#9;428.93,193.99 355.42,321.31 353.68,320.31 427.19,192.99 428.93,193.99 &#9;&#9;"/>
      <polygon style="clip-path:url(#SVGID_00000055682801623994233090000004175642900117686920_);fill:#302D2B;" points="458.2,210.89 &#10;&#9;&#9;&#9;384.69,338.22 382.96,337.22 456.47,209.89 458.2,210.89 &#9;&#9;"/>
      <polygon style="clip-path:url(#SVGID_00000055682801623994233090000004175642900117686920_);fill:#302D2B;" points="&#10;&#9;&#9;&#9;470.75,218.13 397.24,345.46 395.5,344.46 469.02,217.13 470.75,218.13 &#9;&#9;"/>
      <polygon style="clip-path:url(#SVGID_00000055682801623994233090000004175642900117686920_);fill:#302D2B;" points="&#10;&#9;&#9;&#9;466.57,215.72 393.05,343.04 391.32,342.04 464.83,214.72 466.57,215.72 &#9;&#9;"/>
      <polygon style="clip-path:url(#SVGID_00000055682801623994233090000004175642900117686920_);fill:#302D2B;" points="&#10;&#9;&#9;&#9;462.38,213.31 388.87,340.63 387.14,339.63 460.65,212.31 462.38,213.31 &#9;&#9;"/>
    </g>
  </g>
</svg>