<?xml version="1.0" encoding="utf-8"?>
<!-- Generator: Adobe Illustrator 28.0.0, SVG Export Plug-In . SVG Version: 6.00 Build 0)  -->
<svg version="1.1" id="Laag_1" xmlns="http://www.w3.org/2000/svg" xmlns:xlink="http://www.w3.org/1999/xlink" x="0px" y="0px"
	 viewBox="0 0 841.89 595.28" style="enable-background:new 0 0 841.89 595.28;" xml:space="preserve">
<style type="text/css">
	.st0{fill:#208DC8;}
	.st1{fill:#282829;}
</style>
<path class="st0" d="M290.51,380.06c0,25.59,20.75,46.34,46.34,46.34h165.27c25.59,0,46.34-20.75,46.34-46.34V214.79
	c0-25.59-20.75-46.34-46.34-46.34H336.85c-25.59,0-46.34,20.75-46.34,46.34V380.06z"/>
<path class="st1" d="M357.88,332.79c-3.22,0-5.09-1.7-5.09-5.09v-7.8c0-3.39,1.86-5.09,5.09-5.09h11.02
	c8.14,0,11.87,1.19,11.87,9.16c0,7.97-4.07,8.82-12.21,8.82H357.88z M358.05,290.39c-3.22,0-5.09-1.7-5.09-5.09v-12.89
	c0-3.39,1.87-5.09,5.09-5.09h9.16c8.14,0,12.21,1.02,12.21,11.53c0,10.52-4.07,11.53-12.21,11.53H358.05z M328.88,238.15
	c-3.39,0.17-5.09,1.87-5.09,5.26v108.37c0,3.22,1.87,5.09,5.09,5.09h41.89c31.89,0,41.21-10.18,41.21-31.21
	c0-10.52-5.09-18.99-12.04-22.22c6.95-7.63,8.65-18.82,8.65-24.59c0-27.81-12.21-40.7-44.1-40.7H328.88z"/>
<path class="st1" d="M508.91,275.97c3.05-0.68,4.58-2.54,4.41-5.6c-1.02-12.21-9.16-34.94-44.1-34.94
	c-37.99,0-41.04,30.02-40.87,35.11c0,39.01,51.05,35.79,54.27,50.2c1.02,4.58-5.09,9.5-13.4,9.5c-7.97,0-14.25-4.75-14.92-12.89
	c-0.34-3.56-2.21-5.09-5.6-4.41l-19.16,4.24c-3.05,0.68-4.58,2.54-4.41,5.6c0.85,13.23,8.48,36.63,44.1,36.63
	c40.2,0,45.96-30.02,45.96-35.11c0-39.01-53.59-38.67-55.97-51.9c-0.68-3.9,3.39-7.8,10.01-7.8c7.97,0,13.57,4.41,14.76,11.36
	c0.51,3.39,2.2,4.92,5.6,4.24L508.91,275.97z"/>
</svg>
