<?xml version="1.0" encoding="utf-8"?>
<!-- Generator: Adobe Illustrator 28.0.0, SVG Export Plug-In . SVG Version: 6.00 Build 0)  -->
<svg version="1.1" id="Laag_1" xmlns="http://www.w3.org/2000/svg" xmlns:xlink="http://www.w3.org/1999/xlink" x="0px" y="0px"
	 viewBox="0 0 841.89 595.28" style="enable-background:new 0 0 841.89 595.28;" xml:space="preserve">
<style type="text/css">
	.st0{fill:#282829;}
</style>
<path class="st0" d="M230.37,339.62c2.64-0.59,3.96-2.2,3.81-4.83c-0.88-10.55-7.91-30.18-38.09-30.18
	c-32.81,0-35.45,25.93-35.3,30.32c0,33.69,44.09,30.91,46.88,43.36c0.88,3.95-4.4,8.2-11.57,8.2c-6.88,0-12.3-4.1-12.89-11.13
	c-0.29-3.08-1.9-4.39-4.83-3.81l-16.55,3.66c-2.64,0.59-3.96,2.2-3.81,4.83c0.73,11.43,7.32,31.64,38.09,31.64
	c34.72,0,39.7-25.93,39.7-30.32c0-33.69-46.29-33.4-48.34-44.82c-0.59-3.37,2.93-6.74,8.64-6.74c6.88,0,11.72,3.81,12.74,9.81
	c0.44,2.93,1.9,4.25,4.83,3.66L230.37,339.62L230.37,339.62z"/>
<path class="st0" d="M324.71,342.11c0-24.02-10.55-35.16-36.62-35.16h-32.23c-2.93,0.15-4.39,1.61-4.39,4.54v93.6
	c0,2.78,1.61,4.39,4.39,4.39h16.41c2.93,0,4.4-1.46,4.4-4.39v-23.44c0-2.93,1.61-4.39,4.39-4.39h7.03
	C314.16,377.27,324.71,366.13,324.71,342.11L324.71,342.11z M299.51,342.11c0,9.08-3.52,9.96-10.55,9.96h-7.91
	c-2.78,0-4.39-1.61-4.39-4.39v-11.13c0-2.93,1.61-4.39,4.39-4.39h7.91C296,332.15,299.51,333.03,299.51,342.11L299.51,342.11z"/>
<path class="st0" d="M490.6,372.73c-0.29-0.73-0.15-1.47,0.44-1.9c7.76-5.57,11.13-15.09,11.13-28.71
	c0-24.02-10.55-35.16-36.62-35.16h-32.08c-2.64,0-4.54,1.9-4.54,4.54v93.46c0,2.64,1.9,4.54,4.54,4.54h16.41
	c2.64,0,4.54-1.9,4.54-4.54v-23.14c0-2.64,1.9-4.54,4.54-4.54h5.86c0.44,0,0.88,0.29,1.17,0.73l15.23,29.44
	c0.59,1.32,1.9,2.05,3.37,2.05h16.7c4.54,0,6.88-4.1,4.83-7.91L490.6,372.73L490.6,372.73z M476.97,342.11
	c0,9.08-3.51,9.96-10.55,9.96h-7.47c-2.64,0-4.54-1.9-4.54-4.54v-10.84c0-2.64,1.9-4.54,4.54-4.54h7.47
	C473.46,332.15,476.97,333.03,476.97,342.11L476.97,342.11z"/>
<path class="st0" d="M630.27,306.95c2.49,0,4.1,1.03,5.13,3.37l19.92,48.78c0.59,1.32,1.76,1.02,1.76-0.44v-47.31
	c0-2.93,1.61-4.39,4.4-4.39h16.41c2.93,0,4.4,1.47,4.4,4.39v93.75c0,2.78-1.47,4.39-4.4,4.39h-21.53c-2.49,0-4.1-1.03-5.13-3.37
	l-19.92-48.78c-0.59-1.32-1.76-1.02-1.76,0.44v47.32c0,2.78-1.47,4.39-4.4,4.39h-16.41c-2.78,0-4.4-1.61-4.4-4.39v-93.75
	c0-2.93,1.61-4.39,4.4-4.39H630.27L630.27,306.95z"/>
<path class="st0" d="M228.32,241.67c6.01-6.59,7.47-16.26,7.47-21.24c0-24.02-10.55-35.16-38.09-35.16h-30.76
	c-2.93,0.15-4.39,1.61-4.39,4.54v93.6c0,2.78,1.61,4.4,4.39,4.4h36.18c27.54,0,35.6-8.79,35.6-26.95
	C238.72,251.78,234.33,244.45,228.32,241.67L228.32,241.67z M210.6,220.43c0,9.08-3.51,9.96-10.55,9.96h-7.91
	c-2.78,0-4.39-1.47-4.39-4.39v-11.13c0-2.93,1.61-4.4,4.39-4.4h7.91C207.08,210.47,210.6,211.35,210.6,220.43L210.6,220.43z
	 M211.77,259.4c0,6.89-3.51,7.62-10.55,7.62H192c-2.78,0-4.39-1.46-4.39-4.39v-6.74c0-2.93,1.61-4.39,4.39-4.39h9.52
	C208.55,251.49,211.77,252.51,211.77,259.4L211.77,259.4z"/>
<path class="st0" d="M490.6,251.05c-0.29-0.73-0.15-1.47,0.44-1.9c7.76-5.57,11.13-15.09,11.13-28.71
	c0-24.02-10.55-35.16-36.62-35.16h-32.08c-2.64,0-4.54,1.9-4.54,4.54v93.46c0,2.64,1.9,4.54,4.54,4.54h16.41
	c2.64,0,4.54-1.9,4.54-4.54v-23.14c0-2.64,1.9-4.54,4.54-4.54h5.86c0.44,0,0.88,0.29,1.17,0.73l15.23,29.44
	c0.59,1.32,1.9,2.05,3.37,2.05h16.7c4.54,0,6.88-4.1,4.83-7.91L490.6,251.05L490.6,251.05z M476.97,220.43
	c0,9.08-3.52,9.96-10.55,9.96h-7.47c-2.64,0-4.54-1.9-4.54-4.54v-10.84c0-2.64,1.9-4.54,4.54-4.54h7.47
	C473.46,210.47,476.97,211.35,476.97,220.43L476.97,220.43z"/>
<path class="st0" d="M542.53,214.87c0-2.93-1.47-4.4-4.39-4.4h-20.51c-2.78,0-4.4-1.61-4.4-4.39v-16.41c0-2.93,1.61-4.4,4.4-4.4h75
	c2.93,0,4.39,1.47,4.39,4.4v16.41c0,2.78-1.46,4.39-4.39,4.39h-20.51c-2.78,0-4.4,1.47-4.4,4.4v68.55c0,2.78-1.46,4.39-4.39,4.39
	h-16.41c-2.78,0-4.39-1.61-4.39-4.39V214.87L542.53,214.87z"/>
</svg>
