<?xml version="1.0" encoding="utf-8"?>
<svg viewBox="1.696 4.336 257.95 257.95" width="257.95" height="257.95" xmlns="http://www.w3.org/2000/svg">
  <defs>
    <style type="text/css">
		.st0{fill:#4aaa9f;}
		.st1{fill:#282829;}
	</style>
  </defs>
  <path class="st0" d="M 1.696 215.946 C 1.696 241.536 22.446 262.286 48.036 262.286 L 213.306 262.286 C 238.896 262.286 259.646 241.536 259.646 215.946 L 259.646 50.676 C 259.646 25.086 238.896 4.336 213.306 4.336 L 48.036 4.336 C 22.446 4.336 1.696 25.086 1.696 50.676 L 1.696 215.946 Z" style="fill: rgb(74, 170, 159);"/>
  <path class="st1" d="M 69.066 168.676 C 65.846 168.676 63.976 166.976 63.976 163.586 L 63.976 155.786 C 63.976 152.396 65.836 150.696 69.066 150.696 L 80.086 150.696 C 88.226 150.696 91.956 151.886 91.956 159.856 C 91.956 167.826 87.886 168.676 79.746 168.676 L 69.066 168.676 Z M 69.236 126.276 C 66.016 126.276 64.146 124.576 64.146 121.186 L 64.146 108.296 C 64.146 104.906 66.016 103.206 69.236 103.206 L 78.396 103.206 C 86.536 103.206 90.606 104.226 90.606 114.736 C 90.606 125.256 86.536 126.266 78.396 126.266 L 69.236 126.266 L 69.236 126.276 Z M 40.066 74.036 C 36.676 74.206 34.976 75.906 34.976 79.296 L 34.976 187.666 C 34.976 190.886 36.846 192.756 40.066 192.756 L 81.956 192.756 C 113.846 192.756 123.166 182.576 123.166 161.546 C 123.166 151.026 118.076 142.556 111.126 139.326 C 118.076 131.696 119.776 120.506 119.776 114.736 C 119.776 86.926 107.566 74.036 75.676 74.036 L 40.066 74.036 Z"/>
  <path class="st1" d="M 220.096 111.856 C 223.146 111.176 224.676 109.316 224.506 106.256 C 223.486 94.046 215.346 71.316 180.406 71.316 C 142.416 71.316 139.366 101.336 139.536 106.426 C 139.536 145.436 190.586 142.216 193.806 156.626 C 194.826 161.206 188.716 166.126 180.406 166.126 C 172.436 166.126 166.156 161.376 165.486 153.236 C 165.146 149.676 163.276 148.146 159.886 148.826 L 140.726 153.066 C 137.676 153.746 136.146 155.606 136.316 158.666 C 137.166 171.896 144.796 195.296 180.416 195.296 C 220.616 195.296 226.376 165.276 226.376 160.186 C 226.376 121.176 172.786 121.516 170.406 108.286 C 169.726 104.386 173.796 100.486 180.416 100.486 C 188.386 100.486 193.986 104.896 195.176 111.846 C 195.686 115.236 197.376 116.766 200.776 116.086 L 220.096 111.856 Z"/>
</svg>