<?xml version="1.0" encoding="utf-8"?>
<!-- Generator: Adobe Illustrator 28.0.0, SVG Export Plug-In . SVG Version: 6.00 Build 0)  -->
<svg version="1.1" id="Laag_1" xmlns="http://www.w3.org/2000/svg" xmlns:xlink="http://www.w3.org/1999/xlink" x="0px" y="0px"
	 viewBox="0 0 841.89 595.28" style="enable-background:new 0 0 841.89 595.28;" xml:space="preserve">
<style type="text/css">
	.st0{fill:#282829;}
	.st1{fill:#208DC8;}
</style>
<path class="st0" d="M419.49,426.4c-71.12,0-128.98-57.86-128.98-128.98c0-71.12,57.86-128.98,128.98-128.98
	c71.12,0,128.98,57.86,128.98,128.98C548.46,368.54,490.6,426.4,419.49,426.4"/>
<path class="st1" d="M419.49,186.74c-61.03,0-110.68,49.65-110.68,110.68c0,61.03,49.65,110.68,110.68,110.68
	c61.03,0,110.68-49.65,110.68-110.68C530.17,236.4,480.52,186.74,419.49,186.74"/>
<path class="st0" d="M371.35,328.36c-2.82,0-4.45-1.48-4.45-4.45v-6.82c0-2.97,1.63-4.45,4.45-4.45h9.64
	c7.12,0,10.39,1.04,10.39,8.01c0,6.97-3.56,7.71-10.68,7.71H371.35z M371.49,291.27c-2.82,0-4.45-1.48-4.45-4.45v-11.28
	c0-2.97,1.63-4.45,4.45-4.45h8.01c7.12,0,10.68,0.89,10.68,10.09c0,9.2-3.56,10.09-10.68,10.09H371.49z M345.98,245.57
	c-2.97,0.15-4.45,1.63-4.45,4.6v94.8c0,2.82,1.63,4.45,4.45,4.45h36.65c27.89,0,36.05-8.9,36.05-27.3c0-9.2-4.45-16.62-10.53-19.43
	c6.08-6.68,7.57-16.47,7.57-21.51c0-24.33-10.68-35.61-38.58-35.61H345.98z"/>
<path class="st0" d="M500.84,278.66c2.67-0.59,4.01-2.23,3.86-4.9c-0.89-10.68-8.01-30.56-38.57-30.56
	c-33.23,0-35.9,26.26-35.76,30.71c0,34.12,44.66,31.3,47.48,43.92c0.89,4.01-4.45,8.31-11.72,8.31c-6.97,0-12.46-4.15-13.06-11.28
	c-0.3-3.12-1.93-4.45-4.9-3.86l-16.76,3.71c-2.67,0.59-4.01,2.23-3.86,4.9c0.74,11.57,7.42,32.05,38.57,32.05
	c35.16,0,40.21-26.26,40.21-30.71c0-34.12-46.88-33.83-48.96-45.4c-0.59-3.41,2.97-6.82,8.75-6.82c6.97,0,11.87,3.86,12.91,9.94
	c0.44,2.97,1.93,4.3,4.9,3.71L500.84,278.66z"/>
</svg>
