<?xml version="1.0" encoding="utf-8"?>
<!-- Generator: Adobe Illustrator 28.0.0, SVG Export Plug-In . SVG Version: 6.00 Build 0)  -->
<svg version="1.1" id="Laag_1" xmlns="http://www.w3.org/2000/svg" xmlns:xlink="http://www.w3.org/1999/xlink" x="0px" y="0px"
	 viewBox="0 0 841.89 595.28" style="enable-background:new 0 0 841.89 595.28;" xml:space="preserve">
<style type="text/css">
	.st0{fill:#282829;}
</style>
<g>
	<path class="st0" d="M343.93,244.82c-2.97,0.15-4.45,1.63-4.45,4.6v94.8c0,2.82,1.63,4.45,4.45,4.45h36.64
		c27.89,0,36.05-8.9,36.05-27.3c0-9.2-4.45-16.62-10.53-19.43c6.08-6.68,7.57-16.47,7.57-21.51c0-24.33-10.68-35.61-38.57-35.61
		H343.93L343.93,244.82z M369.44,290.51c-2.82,0-4.45-1.48-4.45-4.45v-11.28c0-2.97,1.63-4.45,4.45-4.45h8.01
		c7.12,0,10.68,0.89,10.68,10.09c0,9.2-3.56,10.09-10.68,10.09H369.44L369.44,290.51z M369.3,327.6c-2.82,0-4.45-1.48-4.45-4.45
		v-6.83c0-2.97,1.63-4.45,4.45-4.45h9.64c7.12,0,10.39,1.04,10.39,8.01c0,6.97-3.56,7.71-10.68,7.71H369.3L369.3,327.6z"/>
	<path class="st0" d="M503.22,277.9c2.67-0.59,4.01-2.23,3.86-4.9c-0.89-10.68-8.01-30.56-38.58-30.56
		c-33.23,0-35.9,26.26-35.76,30.71c0,34.12,44.66,31.31,47.48,43.92c0.89,4.01-4.45,8.31-11.72,8.31c-6.97,0-12.46-4.15-13.06-11.28
		c-0.3-3.12-1.93-4.45-4.9-3.86l-16.76,3.71c-2.67,0.59-4.01,2.22-3.86,4.9c0.74,11.57,7.42,32.05,38.57,32.05
		c35.16,0,40.21-26.26,40.21-30.71c0-34.12-46.88-33.83-48.96-45.4c-0.59-3.41,2.97-6.83,8.75-6.83c6.97,0,11.87,3.86,12.91,9.94
		c0.44,2.97,1.93,4.3,4.9,3.71L503.22,277.9L503.22,277.9z"/>
	<path class="st0" d="M419.98,427.23c-71.12,0-128.98-57.86-128.98-128.98c0-71.12,57.86-128.97,128.98-128.97
		c71.12,0,128.98,57.86,128.98,128.97C548.95,369.37,491.09,427.23,419.98,427.23L419.98,427.23z M419.98,187.57
		c-61.03,0-110.68,49.65-110.68,110.68c0,61.03,49.65,110.68,110.68,110.68c61.03,0,110.69-49.65,110.69-110.68
		C530.66,237.22,481.01,187.57,419.98,187.57L419.98,187.57z"/>
</g>
</svg>
