<?xml version="1.0" encoding="utf-8"?>
<!-- Generator: Adobe Illustrator 28.0.0, SVG Export Plug-In . SVG Version: 6.00 Build 0)  -->
<svg version="1.1" id="Laag_1" xmlns="http://www.w3.org/2000/svg" xmlns:xlink="http://www.w3.org/1999/xlink" x="0px" y="0px"
	 viewBox="0 0 841.89 595.28" style="enable-background:new 0 0 841.89 595.28;" xml:space="preserve">
<style type="text/css">
	.st0{clip-path:url(#SVGID_00000057850914761639661440000003637531110445947060_);fill:#292829;}
</style>
<g>
	<defs>
		<rect id="SVGID_1_" x="290.51" y="168.45" width="257.95" height="257.95"/>
	</defs>
	<clipPath id="SVGID_00000029018572547468870810000012157119463879076518_">
		<use xlink:href="#SVGID_1_"  style="overflow:visible;"/>
	</clipPath>
	<path style="clip-path:url(#SVGID_00000029018572547468870810000012157119463879076518_);fill:#292829;" d="M379.42,278.85
		c0-10.52-4.07-11.53-12.21-11.53h-9.16c-3.22,0-5.09,1.7-5.09,5.09v12.89c0,3.39,1.86,5.09,5.09,5.09h9.16
		C375.35,290.39,379.42,289.37,379.42,278.85 M380.77,323.97c0-7.97-3.73-9.16-11.87-9.16h-11.02c-3.22,0-5.09,1.7-5.09,5.09v7.8
		c0,3.39,1.87,5.09,5.09,5.09h10.68C376.7,332.79,380.77,331.94,380.77,323.97 M459.22,272.41c2.37,13.23,55.97,12.89,55.97,51.9
		c0,5.09-5.77,35.11-45.96,35.11c-35.62,0-43.25-23.4-44.1-36.63c-0.17-3.05,1.36-4.92,4.41-5.6l19.17-4.24
		c3.39-0.68,5.26,0.85,5.6,4.41c0.68,8.14,6.95,12.89,14.93,12.89c8.31,0,14.42-4.92,13.4-9.5c-3.22-14.42-54.27-11.19-54.27-50.2
		c-0.17-5.09,2.88-35.11,40.87-35.11c34.94,0,43.08,22.73,44.1,34.94c0.17,3.05-1.36,4.92-4.41,5.6l-19.33,4.24
		c-3.39,0.68-5.09-0.85-5.6-4.24c-1.19-6.95-6.78-11.36-14.76-11.36C462.61,264.61,458.54,268.51,459.22,272.41 M399.94,303.45
		c6.95,3.22,12.04,11.7,12.04,22.22c0,21.03-9.33,31.21-41.21,31.21h-41.89c-3.22,0-5.09-1.86-5.09-5.09V243.41
		c0-3.39,1.7-5.09,5.09-5.26h35.62c31.88,0,44.1,12.89,44.1,40.7C408.59,284.62,406.89,295.81,399.94,303.45 M548.46,380.06V214.79
		c0-25.59-20.75-46.34-46.34-46.34H336.85c-25.59,0-46.34,20.75-46.34,46.34v165.27c0,25.59,20.75,46.34,46.34,46.34h165.27
		C527.72,426.4,548.46,405.66,548.46,380.06"/>
</g>
</svg>
