<?xml version="1.0" standalone="no"?>
<!DOCTYPE svg PUBLIC "-//W3C//DTD SVG 20010904//EN"
 "http://www.w3.org/TR/2001/REC-SVG-20010904/DTD/svg10.dtd">
<svg version="1.0" xmlns="http://www.w3.org/2000/svg"
 width="1654.000000pt" height="1654.000000pt" viewBox="0 0 1654.000000 1654.000000"
 preserveAspectRatio="xMidYMid meet">
<metadata>
Created by potrace 1.14, written by Peter Selinger 2001-2017
</metadata>
<g transform="translate(0.000000,1654.000000) scale(0.100000,-0.100000)"
fill="#000000" stroke="none">
<path d="M2685 16520 c-27 -4 -72 -10 -100 -14 -51 -6 -191 -31 -232 -41 -13
-3 -31 -7 -41 -9 -9 -2 -37 -9 -62 -16 -25 -7 -52 -13 -60 -15 -97 -20 -403
-142 -560 -223 -172 -90 -451 -272 -516 -337 -6 -6 -47 -41 -92 -79 -222 -187
-476 -500 -637 -786 -137 -242 -276 -610 -319 -840 -37 -204 -40 -222 -53
-358 -10 -99 -10 -10961 0 -11067 7 -80 9 -96 27 -215 12 -76 48 -244 60 -280
4 -14 18 -59 30 -100 99 -340 296 -716 530 -1010 74 -93 323 -352 390 -405 14
-11 57 -46 95 -76 186 -149 413 -288 635 -387 130 -58 343 -135 437 -157 10
-3 38 -9 63 -16 75 -18 82 -20 185 -39 119 -22 166 -28 265 -38 97 -9 10970
-9 11070 0 102 9 145 15 220 28 36 6 77 13 91 15 69 11 150 32 334 87 309 93
690 298 965 519 112 89 334 305 416 404 259 310 448 652 568 1023 31 98 77
273 91 347 10 57 24 150 29 195 3 25 9 74 13 110 10 84 10 10915 0 11040 -11
132 -22 224 -32 260 -1 3 -5 25 -9 50 -21 124 -110 436 -146 515 -5 11 -27 63
-49 115 -180 431 -501 851 -887 1161 -225 181 -530 356 -794 456 -211 80 -443
141 -650 169 -25 3 -54 9 -65 13 -28 9 -11150 10 -11210 1z"/>
</g>
</svg>
